<svg xmlns="http://www.w3.org/2000/svg" viewBox="0 0 207 250">
	<style>
		.st1{fill:#fff}
	</style>
	<path stroke="#000" stroke-miterlimit="10" d="M57.5.5h150v250h-150z" id="Layer_1"/>
	<g id="Layer_2">
		<path class="st1" d="M74.8 111v83.5h-6.6V16.7h57.9c18.7 0 33.1 4 43.2 12.1 10.1 8.1 15.1 19.9 15.1 35.5 0 10-3.2 19.1-9.6 27.3s-15.1 13.5-26.2 15.9c12.8 2.2 21.9 6.9 27.5 14 5.5 7.2 8.3 16.3 8.3 27.5v16.7c0 5.5.7 10.5 2 14.9s3.6 8 6.7 10.7v3.1h-6.5c-2.9-3.3-5.1-7.5-6.6-12.4s-2.2-10.4-2.2-16.5v-16.2c0-12-4.1-21.4-12.4-28.2-8.3-6.8-20-10.1-35.3-10.1H74.8zm0-6.6h50c18.1 0 31.5-3.8 40.1-11.5 8.6-7.6 12.9-17.2 12.9-28.6 0-13.3-4.3-23.4-13-30.5-8.7-7-21.6-10.6-38.8-10.6H74.8v81.2z"/>
		<path d="M0 24h30v200H0z"/>
		<path d="M0 194h57v30H0z"/>
		<path class="st1" d="M57 194h142v30H57z"/>
	</g>
</svg>